{
	"asset":{
		"generator":"Khronos glTF Blender I/O v4.0.44",
		"version":"2.0"
	},
	"extensionsUsed":[
		"EXT_texture_webp",
		"KHR_materials_transmission",
		"KHR_materials_ior"
	],
	"extensionsRequired":[
		"EXT_texture_webp"
	],
	"scene":0,
	"scenes":[
		{
			"name":"Scene",
			"nodes":[
				0
			]
		}
	],
	"nodes":[
		{
			"mesh":0,
			"name":"big_gh_mid.BAKE"
		}
	],
	"materials":[
		{
			"doubleSided":true,
			"extensions":{
				"KHR_materials_transmission":{
					"transmissionFactor":1,
					"transmissionTexture":{
						"index":0
					}
				},
				"KHR_materials_ior":{
					"ior":5.5
				}
			},
			"name":"2.001",
			"normalTexture":{
				"index":1
			},
			"pbrMetallicRoughness":{
				"baseColorFactor":[
					0.800000011920929,
					0.800000011920929,
					0.800000011920929,
					1
				],
				"metallicRoughnessTexture":{
					"index":2
				}
			}
		}
	],
	"meshes":[
		{
			"name":"Cube.003",
			"primitives":[
				{
					"attributes":{
						"POSITION":0,
						"NORMAL":1,
						"TEXCOORD_0":2
					},
					"indices":3,
					"material":0
				}
			]
		}
	],
	"textures":[
		{
			"extensions":{
				"EXT_texture_webp":{
					"source":0
				}
			},
			"sampler":0
		},
		{
			"extensions":{
				"EXT_texture_webp":{
					"source":1
				}
			},
			"sampler":0
		},
		{
			"extensions":{
				"EXT_texture_webp":{
					"source":2
				}
			},
			"sampler":0
		}
	],
	"images":[
		{
			"mimeType":"image/webp",
			"name":"big mid trans",
			"uri":"big%20mid%20trans.webp"
		},
		{
			"mimeType":"image/webp",
			"name":"big mid normal",
			"uri":"big%20mid%20normal.webp"
		},
		{
			"mimeType":"image/webp",
			"name":"big mid met-big mid rough",
			"uri":"big%20mid%20met-big%20mid%20rough.webp"
		}
	],
	"accessors":[
		{
			"bufferView":0,
			"componentType":5126,
			"count":1314,
			"max":[
				1.4980883598327637,
				2.498297929763794,
				0.5023029446601868
			],
			"min":[
				-1.4980885982513428,
				-0.0017020758241415024,
				-0.49974891543388367
			],
			"type":"VEC3"
		},
		{
			"bufferView":1,
			"componentType":5126,
			"count":1314,
			"type":"VEC3"
		},
		{
			"bufferView":2,
			"componentType":5126,
			"count":1314,
			"type":"VEC2"
		},
		{
			"bufferView":3,
			"componentType":5123,
			"count":2562,
			"type":"SCALAR"
		}
	],
	"bufferViews":[
		{
			"buffer":0,
			"byteLength":15768,
			"byteOffset":0,
			"target":34962
		},
		{
			"buffer":0,
			"byteLength":15768,
			"byteOffset":15768,
			"target":34962
		},
		{
			"buffer":0,
			"byteLength":10512,
			"byteOffset":31536,
			"target":34962
		},
		{
			"buffer":0,
			"byteLength":5124,
			"byteOffset":42048,
			"target":34963
		}
	],
	"samplers":[
		{
			"magFilter":9729,
			"minFilter":9987
		}
	],
	"buffers":[
		{
			"byteLength":47172,
			"uri":"green2.bin"
		}
	]
}
