{
	"asset":{
		"generator":"Khronos glTF Blender I/O v4.0.44",
		"version":"2.0"
	},
	"extensionsUsed":[
		"EXT_texture_webp",
		"KHR_materials_transmission",
		"KHR_materials_ior"
	],
	"extensionsRequired":[
		"EXT_texture_webp"
	],
	"scene":0,
	"scenes":[
		{
			"name":"Scene",
			"nodes":[
				0
			]
		}
	],
	"nodes":[
		{
			"mesh":0,
			"name":"big_gh_start.BAKE"
		}
	],
	"materials":[
		{
			"doubleSided":true,
			"extensions":{
				"KHR_materials_transmission":{
					"transmissionFactor":1,
					"transmissionTexture":{
						"index":0
					}
				},
				"KHR_materials_ior":{
					"ior":5.049999713897705
				}
			},
			"name":"1",
			"normalTexture":{
				"index":1
			},
			"pbrMetallicRoughness":{
				"baseColorFactor":[
					0.800000011920929,
					0.800000011920929,
					0.800000011920929,
					1
				],
				"metallicRoughnessTexture":{
					"index":2
				}
			}
		}
	],
	"meshes":[
		{
			"name":"Cube.025",
			"primitives":[
				{
					"attributes":{
						"POSITION":0,
						"NORMAL":1,
						"TEXCOORD_0":2
					},
					"indices":3,
					"material":0
				}
			]
		}
	],
	"textures":[
		{
			"extensions":{
				"EXT_texture_webp":{
					"source":0
				}
			},
			"sampler":0
		},
		{
			"extensions":{
				"EXT_texture_webp":{
					"source":1
				}
			},
			"sampler":0
		},
		{
			"extensions":{
				"EXT_texture_webp":{
					"source":2
				}
			},
			"sampler":0
		}
	],
	"images":[
		{
			"mimeType":"image/webp",
			"name":"big_start_trann",
			"uri":"big_start_trann.webp"
		},
		{
			"mimeType":"image/webp",
			"name":"bis start norm",
			"uri":"bis%20start%20norm.webp"
		},
		{
			"mimeType":"image/webp",
			"name":"big start met2-big start rough",
			"uri":"big%20start%20met2-big%20start%20rough.webp"
		}
	],
	"accessors":[
		{
			"bufferView":0,
			"componentType":5126,
			"count":940,
			"max":[
				1.4980883598327637,
				2.498297929763794,
				0.5064540505409241
			],
			"min":[
				-1.4980885982513428,
				-0.0017020758241415024,
				-0.501025915145874
			],
			"type":"VEC3"
		},
		{
			"bufferView":1,
			"componentType":5126,
			"count":940,
			"type":"VEC3"
		},
		{
			"bufferView":2,
			"componentType":5126,
			"count":940,
			"type":"VEC2"
		},
		{
			"bufferView":3,
			"componentType":5123,
			"count":1872,
			"type":"SCALAR"
		}
	],
	"bufferViews":[
		{
			"buffer":0,
			"byteLength":11280,
			"byteOffset":0,
			"target":34962
		},
		{
			"buffer":0,
			"byteLength":11280,
			"byteOffset":11280,
			"target":34962
		},
		{
			"buffer":0,
			"byteLength":7520,
			"byteOffset":22560,
			"target":34962
		},
		{
			"buffer":0,
			"byteLength":3744,
			"byteOffset":30080,
			"target":34963
		}
	],
	"samplers":[
		{
			"magFilter":9729,
			"minFilter":9987
		}
	],
	"buffers":[
		{
			"byteLength":33824,
			"uri":"green.bin"
		}
	]
}
